<svg xmlns="http://www.w3.org/2000/svg" version="1.1" xmlns:xlink="http://www.w3.org/1999/xlink" xmlns:svgjs="http://svgjs.dev/svgjs" width="1000" height="623" viewBox="0 0 1000 623"><g transform="matrix(1,0,0,1,-0.6060606060606233,0.2522267206477409)"><svg viewBox="0 0 396 247" data-background-color="#ffffff" preserveAspectRatio="xMidYMid meet" height="623" width="1000" xmlns="http://www.w3.org/2000/svg" xmlns:xlink="http://www.w3.org/1999/xlink"><g id="tight-bounds" transform="matrix(1,0,0,1,0.2400000000000091,-0.09999999999999432)"><svg viewBox="0 0 395.52 247.2" height="247.2" width="395.52"><g><svg></svg></g><g><svg viewBox="0 0 395.52 247.2" height="247.2" width="395.52"><g transform="matrix(1,0,0,1,83.6024967032967,47.215199999999996)"><svg viewBox="0 0 228.3150065934066 152.7696" height="152.7696" width="228.3150065934066"><g><svg viewBox="0 0 228.3150065934066 152.7696" height="152.7696" width="228.3150065934066"><g><svg viewBox="0 0 228.31500659340665 152.76960000000003" height="152.7696" width="228.3150065934066"><g><svg viewBox="0 0 228.31500659340665 152.76960000000003" height="152.76960000000003" width="228.31500659340665"><g id="textblocktransform"><svg viewBox="0 0 228.31500659340665 152.76960000000003" height="152.76960000000003" width="228.31500659340665" id="textblock"><g><svg viewBox="0 0 228.31500659340665 152.76960000000003" height="152.76960000000003" width="228.31500659340665"><g transform="matrix(1,0,0,1,0,0)"><svg width="228.31500659340665" viewBox="0.9000000357627869 -36.400001525878906 54.39999771118164 36.400001525878906" height="152.76960000000003" data-palette-color="#ffffff"><path d="M13.55-36.4L18.1-36.4 30.7 0 25.55 0 21.35-12.5 9.35-12.5 5.1 0 0.9 0 13.55-36.4ZM20.2-15.9L15.4-30.3 10.5-15.9 20.2-15.9ZM35.85-33.1L35.15-36.4 55.3-36.4 55.3-32.95 40.5-32.95 40.5-20.4 52.25-20.4 52.25-17 40.5-17 40.5 0 35.85 0 35.85-33.1Z" opacity="1" transform="matrix(1,0,0,1,0,0)" fill="#ffffff" class="wordmark-text-0" data-fill-palette-color="primary" id="text-0"></path></svg></g></svg></g></svg></g></svg></g></svg></g></svg></g></svg></g><path d="M129.616 41.215L129.616 0 376.816 0 376.816 247.2 129.616 247.2 129.616 205.985 143.393 205.985 143.393 233.423 363.039 233.423 363.039 13.777 143.393 13.777 143.393 41.215Z" fill="#ffffff" stroke="transparent" data-fill-palette-color="primary"></path></svg></g><defs></defs></svg><rect width="395.52" height="247.2" fill="none" stroke="none" visibility="hidden"></rect></g></svg></g></svg>